<svg preserveAspectRatio="none" width="100%" height="100%" overflow="visible" style="display: block;" viewBox="0 0 20.4998 20.5" fill="none" xmlns="http://www.w3.org/2000/svg">
<g id="elements">
<path id="Vector" d="M1.24992 9.25L1.40279 12.4769C1.56705 15.9186 1.64918 17.6394 2.80876 18.6947C3.96834 19.75 5.77708 19.75 9.39454 19.75H11.1053C14.7228 19.75 16.5315 19.75 17.6911 18.6947C18.8507 17.6394 18.9328 15.9186 19.097 12.4769L19.2499 9.25" stroke="var(--stroke-0, #242429)" stroke-width="1.5" stroke-linecap="round" stroke-linejoin="round"/>
<path id="Vector_2" d="M1.0971 8.69306C2.7964 11.9244 6.62912 13.25 10.2499 13.25C13.8707 13.25 17.7034 11.9244 19.4027 8.69306C20.2139 7.15056 19.5997 4.25 17.6019 4.25H2.89792C0.90015 4.25 0.285945 7.15057 1.0971 8.69306Z" stroke="var(--stroke-0, #242429)" stroke-width="1.5"/>
<path id="Vector_3" d="M10.2499 9.25H10.2588" stroke="var(--stroke-0, #242429)" stroke-width="2" stroke-linecap="round" stroke-linejoin="round"/>
<path id="Vector_4" d="M14.2498 4.25L14.1615 3.94094C13.7215 2.4009 13.5015 1.63087 12.9777 1.19044C12.4539 0.750003 11.7582 0.750003 10.3668 0.750003H10.1328C8.74139 0.750003 8.04567 0.750003 7.52189 1.19044C6.99812 1.63087 6.77811 2.4009 6.3381 3.94094L6.2498 4.25" stroke="var(--stroke-0, #242429)" stroke-width="1.5"/>
</g>
</svg>
