<svg preserveAspectRatio="none" width="100%" height="100%" overflow="visible" style="display: block;" viewBox="0 0 24 24" fill="none" xmlns="http://www.w3.org/2000/svg">
<g id="compress">
<mask id="mask0_0_4" style="mask-type:alpha" maskUnits="userSpaceOnUse" x="0" y="0" width="24" height="24">
<rect id="Bounding box" width="24" height="24" fill="var(--fill-0, #D9D9D9)"/>
</mask>
<g mask="url(#mask0_0_4)">
<path id="compress_2" d="M5.25 13.3845C5.0375 13.3845 4.85942 13.3126 4.71575 13.1688C4.57192 13.0251 4.5 12.8469 4.5 12.6343C4.5 12.4216 4.57192 12.2435 4.71575 12.1C4.85942 11.9563 5.0375 11.8845 5.25 11.8845H18.75C18.9625 11.8845 19.1406 11.9564 19.2843 12.1003C19.4281 12.2441 19.5 12.4223 19.5 12.635C19.5 12.8475 19.4281 13.0256 19.2843 13.1692C19.1406 13.3127 18.9625 13.3845 18.75 13.3845H5.25ZM5.25 10.5C5.0375 10.5 4.85942 10.4281 4.71575 10.2842C4.57192 10.1404 4.5 9.96225 4.5 9.74975C4.5 9.53708 4.57192 9.359 4.71575 9.2155C4.85942 9.07183 5.0375 9 5.25 9H18.75C18.9625 9 19.1406 9.07192 19.2843 9.21575C19.4281 9.35958 19.5 9.53775 19.5 9.75025C19.5 9.96292 19.4281 10.141 19.2843 10.2845C19.1406 10.4282 18.9625 10.5 18.75 10.5H5.25ZM11.4655 21.2842C11.3218 21.1406 11.25 20.9625 11.25 20.75V17.8385L9.927 19.1615C9.7885 19.3 9.61442 19.3708 9.40475 19.374C9.19525 19.3772 9.018 19.3063 8.873 19.1615C8.72817 19.0167 8.65575 18.841 8.65575 18.6345C8.65575 18.4282 8.72817 18.2526 8.873 18.1077L11.364 15.6168C11.4598 15.5209 11.5601 15.4538 11.6648 15.4155C11.7694 15.377 11.8816 15.3578 12.0012 15.3578C12.1209 15.3578 12.2327 15.377 12.3365 15.4155C12.4403 15.4538 12.5402 15.5209 12.636 15.6168L15.127 18.1077C15.2653 18.2461 15.3387 18.4175 15.347 18.622C15.3553 18.8265 15.2813 19.007 15.1248 19.1635C14.9813 19.307 14.8089 19.3813 14.6077 19.3865C14.4064 19.3917 14.2282 19.3218 14.073 19.177L12.75 17.8693V20.75C12.75 20.9625 12.6781 21.1406 12.5343 21.2842C12.3904 21.4281 12.2122 21.5 11.9997 21.5C11.7871 21.5 11.609 21.4281 11.4655 21.2842ZM11.6635 6.96925C11.5597 6.93075 11.4598 6.86358 11.364 6.76775L8.873 4.277C8.73467 4.1385 8.66383 3.96442 8.6605 3.75475C8.65733 3.54508 8.72817 3.36783 8.873 3.223C9.018 3.07817 9.19367 3.00575 9.4 3.00575C9.60633 3.00575 9.782 3.07817 9.927 3.223L11.25 4.54625V1.6345C11.25 1.422 11.3219 1.24392 11.4658 1.10025C11.6096 0.956417 11.7878 0.8845 12.0003 0.8845C12.2129 0.8845 12.391 0.956417 12.5345 1.10025C12.6782 1.24392 12.75 1.422 12.75 1.6345V4.54625L14.073 3.223C14.2115 3.08467 14.3856 3.01383 14.5953 3.0105C14.8048 3.00733 14.982 3.07817 15.127 3.223C15.2718 3.36783 15.3443 3.5435 15.3443 3.75C15.3443 3.95633 15.2718 4.132 15.127 4.277L12.636 6.76775C12.5402 6.86358 12.4399 6.93075 12.3353 6.96925C12.2306 7.00775 12.1184 7.027 11.9988 7.027C11.8791 7.027 11.7673 7.00775 11.6635 6.96925Z" fill="var(--fill-0, #242429)"/>
</g>
</g>
</svg>
