<svg preserveAspectRatio="none" width="100%" height="100%" overflow="visible" style="display: block;" viewBox="0 0 19.5 19.5" fill="none" xmlns="http://www.w3.org/2000/svg">
<g id="elements">
<path id="Vector" d="M12.3063 10.9683C11.264 12.0106 9.57407 12.0106 8.53174 10.9683C7.48942 9.92592 7.48942 8.23597 8.53174 7.19364L10.8909 4.8345C11.8857 3.83961 13.4706 3.79433 14.5192 4.69866M14.1937 1.53175C15.236 0.489418 16.9259 0.489418 17.9683 1.53175C19.0106 2.57408 19.0106 4.26403 17.9683 5.30636L15.6091 7.6655C14.6143 8.66039 13.0294 8.70567 11.9808 7.80134" stroke="var(--stroke-0, #5E5E5E)" stroke-width="1.5" stroke-linecap="round"/>
<path id="Vector_2" d="M18.75 10.75C18.75 14.5212 18.75 16.4069 17.5784 17.5784C16.4069 18.75 14.5212 18.75 10.75 18.75H8.75C4.97876 18.75 3.09315 18.75 1.92157 17.5784C0.750001 16.4069 0.750001 14.5212 0.750001 10.75V8.75C0.750001 4.97876 0.750001 3.09315 1.92157 1.92157C3.09315 0.750001 4.97876 0.750001 8.75 0.750001" stroke="var(--stroke-0, #5E5E5E)" stroke-width="1.5" stroke-linecap="round"/>
</g>
</svg>
