<svg preserveAspectRatio="none" width="100%" height="100%" overflow="visible" style="display: block;" viewBox="0 0 20 20" fill="none" xmlns="http://www.w3.org/2000/svg">
<g id="mail-01">
<path id="Vector" d="M1.66667 5L7.42752 8.26414C9.55133 9.4675 10.4487 9.4675 12.5725 8.26414L18.3333 5" stroke="var(--stroke-0, white)" stroke-width="1.5" stroke-linejoin="round"/>
<path id="Vector_2" d="M1.67981 11.2297C1.73428 13.7843 1.76153 15.0616 2.70413 16.0078C3.64673 16.954 4.95861 16.9869 7.58236 17.0528C9.19942 17.0935 10.8006 17.0935 12.4177 17.0528C15.0414 16.9869 16.3532 16.954 17.2959 16.0078C18.2385 15.0616 18.2657 13.7843 18.3202 11.2297C18.3377 10.4082 18.3377 9.59175 18.3202 8.77033C18.2657 6.21572 18.2385 4.93841 17.2959 3.99222C16.3532 3.04602 15.0414 3.01307 12.4177 2.94714C10.8006 2.90651 9.19942 2.90651 7.58235 2.94713C4.95861 3.01305 3.64673 3.04601 2.70412 3.99221C1.76152 4.9384 1.73428 6.21571 1.6798 8.77033C1.66228 9.59175 1.66229 10.4082 1.67981 11.2297Z" stroke="var(--stroke-0, white)" stroke-width="1.5" stroke-linejoin="round"/>
</g>
</svg>
