<svg preserveAspectRatio="none" width="100%" height="100%" overflow="visible" style="display: block;" viewBox="0 0 20 20" fill="none" xmlns="http://www.w3.org/2000/svg">
<g id="call">
<path id="Vector" d="M4.09322 8.78442L6.29357 6.58407C6.74242 6.13522 6.89773 5.47202 6.7162 4.86377C6.57425 4.38814 6.41432 3.81637 6.30801 3.32743C6.20968 2.87522 5.81287 2.5 5.3501 2.5H4.09322C3.16767 2.5 2.40759 3.2532 2.50912 4.17317C3.28091 11.1663 8.83367 16.7191 15.8268 17.4909C16.7468 17.5924 17.5 16.8323 17.5 15.9068V14.6499C17.5 14.1872 17.1232 13.8075 16.6679 13.7247C16.1657 13.6333 15.6342 13.4837 15.1897 13.3419C14.5509 13.1382 13.8409 13.2814 13.3669 13.7554L11.2156 15.9068" stroke="var(--stroke-0, white)" stroke-width="1.5" stroke-linecap="round" stroke-linejoin="round"/>
</g>
</svg>
