<svg preserveAspectRatio="none" width="100%" height="100%" overflow="visible" style="display: block;" viewBox="0 0 24 24" fill="none" xmlns="http://www.w3.org/2000/svg">
<g id="whatsapp" clip-path="url(#clip0_0_80)">
<path id="Vector" d="M20.5026 3.48769C18.2465 1.23993 15.2465 0.00137181 12.0502 3.94739e-07C5.46377 3.94739e-07 0.103733 5.33475 0.101096 11.8919C0.100329 13.9879 0.650412 16.034 1.69597 17.8375L0.00077699 24L6.33514 22.3464C8.08038 23.294 10.0454 23.7933 12.0451 23.7941H12.0502H12.0502C18.6356 23.7941 23.9964 18.4584 23.9992 11.9016C24.0003 8.72364 22.7585 5.73561 20.5026 3.48769ZM12.0502 21.7855H12.0463C10.2639 21.7846 8.51603 21.3081 6.99144 20.4075L6.62862 20.1933L2.86968 21.1745L3.87326 17.527L3.63687 17.1531C2.64263 15.5792 2.11775 13.7603 2.1185 11.8927C2.12069 6.44257 6.57574 2.00867 12.054 2.00867C14.7068 2.00976 17.2002 3.03926 19.0754 4.90753C20.9505 6.77579 21.9824 9.25937 21.9816 11.9007C21.9793 17.351 17.5241 21.7855 12.0502 21.7855Z" fill="var(--fill-0, #E0E0E0)"/>
<path id="Vector_2" d="M0.549306 23.3162L2.16707 17.4352C1.16901 15.7141 0.644155 13.7613 0.644784 11.7615C0.647401 5.50394 5.76264 0.41303 12.0477 0.41303C15.0981 0.414401 17.9611 1.59632 20.1137 3.74146C22.2668 5.88658 23.4518 8.73792 23.4505 11.7703C23.4479 18.028 18.3324 23.1194 12.0481 23.1194C12.0484 23.1194 12.0477 23.1194 12.0481 23.1194H12.043C10.1347 23.1187 8.2596 22.6418 6.5942 21.7382L0.549306 23.3162Z" fill="url(#paint0_linear_0_80)"/>
<path id="Vector_3" fill-rule="evenodd" clip-rule="evenodd" d="M9.09746 6.84322C8.8764 6.35388 8.64364 6.34409 8.43332 6.33553C8.2613 6.32818 8.06436 6.32863 7.86773 6.32863C7.67095 6.32863 7.35118 6.40225 7.08076 6.69629C6.81019 6.99032 6.04766 7.70112 6.04766 9.14676C6.04766 10.5926 7.10536 11.9895 7.25279 12.1857C7.40038 12.3817 9.29456 15.4432 12.2944 16.6209C14.7875 17.5998 15.2949 17.4051 15.836 17.3561C16.3772 17.3071 17.5821 16.6454 17.8281 15.9593C18.0741 15.2732 18.0741 14.6852 18.0003 14.5623C17.9265 14.4398 17.7297 14.3664 17.4345 14.2194C17.1394 14.0725 15.6884 13.3615 15.4179 13.2636C15.1473 13.1656 14.9505 13.1166 14.7537 13.4108C14.5569 13.7047 13.9916 14.3664 13.8195 14.5623C13.6473 14.7587 13.4751 14.7831 13.1799 14.6362C12.8847 14.4888 11.9342 14.1789 10.8065 13.1778C9.92918 12.3991 9.33683 11.4373 9.16464 11.1431C8.99246 10.8492 9.14618 10.69 9.29424 10.5435C9.42676 10.4119 9.58942 10.2005 9.737 10.029C9.88427 9.85737 9.93347 9.73492 10.0319 9.539C10.1302 9.34277 10.0811 9.17121 10.0073 9.02427C9.93347 8.87734 9.35989 7.42423 9.09746 6.84322Z" fill="var(--fill-0, white)"/>
<path id="Vector_4" d="M20.405 3.4499C18.1748 1.22794 15.2092 0.00362484 12.0497 0.00223383C5.5388 0.00223383 0.2403 5.27574 0.237682 11.7576C0.236915 13.8296 0.780682 15.8521 1.81424 17.635L0.138524 23.7267L6.40018 22.092C8.1254 23.0287 10.0679 23.5224 12.0446 23.5231H12.0496H12.0497C18.5594 23.5231 23.8587 18.2487 23.8615 11.7671C23.8626 8.62574 22.635 5.67202 20.405 3.4499ZM12.0497 21.5377H12.0458C10.2839 21.5368 8.55602 21.0658 7.04894 20.1754L6.69027 19.9638L2.97448 20.9337L3.96654 17.3281L3.73286 16.9585C2.75003 15.4026 2.23118 13.6046 2.23195 11.7584C2.23409 6.37089 6.638 1.98788 12.0534 1.98788C14.6758 1.98896 17.1405 3.00664 18.9942 4.85346C20.8478 6.70028 21.8678 9.15534 21.8671 11.7664C21.8648 17.1541 17.4607 21.5377 12.0497 21.5377Z" fill="var(--fill-0, white)"/>
</g>
<defs>
<linearGradient id="paint0_linear_0_80" x1="11.9999" y1="23.3162" x2="11.9999" y2="0.413068" gradientUnits="userSpaceOnUse">
<stop stop-color="#20B038"/>
<stop offset="1" stop-color="#60D66A"/>
</linearGradient>
<clipPath id="clip0_0_80">
<rect width="24" height="24" fill="white"/>
</clipPath>
</defs>
</svg>
