<svg preserveAspectRatio="none" width="100%" height="100%" overflow="visible" style="display: block;" viewBox="0 0 214 213.794" fill="none" xmlns="http://www.w3.org/2000/svg">
<g id="Vector 77" filter="url(#filter0_d_0_12)">
<path d="M37.5 193.794L8 94.7942C10.5 93.1278 17.3 89.0949 24.5 86.2949C31.7 83.4949 38.8333 74.7949 41.5 70.7949C36.3 61.1949 36 40.7949 36.5 31.7949C48 15.2949 63.5 27.2949 66.5 32.7949C68.9 37.1949 64.5 62.2949 62 74.2949L65 88.2949C84.5 89.2949 93.5 100.128 95.5 105.295L110.5 94.7942L126.5 80.2942L122 42.7949C121.6 28.3949 130.833 22.7945 135.5 21.7942C151.9 14.5942 160.667 30.7942 163 39.7942C162.167 43.4609 161 51.1942 163 52.7942C165 54.3942 162.167 71.7942 160.5 80.2942L169.5 93.2942L182 101.794L180.5 190.294L37.5 193.794Z" fill="var(--fill-0, black)"/>
</g>
<defs>
<filter id="filter0_d_0_12" x="0" y="-3.11246e-08" width="214" height="213.794" filterUnits="userSpaceOnUse" color-interpolation-filters="sRGB">
<feFlood flood-opacity="0" result="BackgroundImageFix"/>
<feColorMatrix in="SourceAlpha" type="matrix" values="0 0 0 0 0 0 0 0 0 0 0 0 0 0 0 0 0 0 127 0" result="hardAlpha"/>
<feOffset dx="12"/>
<feGaussianBlur stdDeviation="10"/>
<feComposite in2="hardAlpha" operator="out"/>
<feColorMatrix type="matrix" values="0 0 0 0 0 0 0 0 0 0 0 0 0 0 0 0 0 0 0.5 0"/>
<feBlend mode="normal" in2="BackgroundImageFix" result="effect1_dropShadow_0_12"/>
<feBlend mode="normal" in="SourceGraphic" in2="effect1_dropShadow_0_12" result="shape"/>
</filter>
</defs>
</svg>
