<svg preserveAspectRatio="none" width="100%" height="100%" overflow="visible" style="display: block;" viewBox="0 0 210.805 203.858" fill="none" xmlns="http://www.w3.org/2000/svg">
<g id="Group 10345" opacity="0.05" filter="url(#filter0_d_0_12)">
<path id="Path 10494" d="M111.879 70.9075C110.62 67.1827 109.006 63.5809 107.06 60.1558C104.816 57.0105 102.024 54.3086 98.8323 52.195C95.7822 49.7398 92.1707 48.1544 88.385 47.6091C85.6258 47.03 82.7945 47.2975 80.2506 48.3775C77.7732 49.4283 75.5798 51.0434 73.8307 53.1045C71.8366 55.6797 70.6982 58.8587 70.5725 62.2029C70.3376 67.8341 71.1586 68.4403 72.9014 75.6264C74.6442 82.8126 76.5417 84.8972 76.367 89.2063C76.4426 90.2877 76.2339 91.3581 75.7628 92.3059C75.2917 93.2536 74.5755 94.0438 73.6889 94.5942C72.5499 95.373 71.2034 95.7922 69.8085 95.8023C67.7274 95.8095 65.6752 95.1017 63.9794 93.792C61.427 92.0526 59.2384 89.7978 57.5554 87.1737C56.4124 85.677 55.436 84.0576 54.6451 82.3475L53.9384 80.9079L47.3106 89.2988C49.6267 92.5634 52.1522 95.6707 54.8692 98.5989C57.1109 100.569 56.6756 100.186 57.791 101.083C59.3086 102.261 60.8974 103.337 62.5468 104.304C64.952 105.712 67.4874 106.858 70.1094 107.722C72.3638 108.384 74.6837 108.728 77.0039 108.745L82.662 108.114L76.8225 115.512L89.9042 125.608L95.7438 118.209C95.8532 120.549 96.263 122.875 96.9627 125.13C97.78 127.991 99.1843 130.663 101.08 132.964C102.38 134.764 103.907 136.384 105.617 137.781C109.635 141.519 114.311 144.425 119.369 146.327C121.005 147.07 122.715 147.613 124.461 147.945L152.446 112.477C154.237 109.771 155.083 106.499 154.856 103.166C154.639 99.9147 153.45 96.7699 151.45 94.1608C149.504 91.3856 147.096 88.975 144.343 87.0461C141.804 85.4165 139.112 84.0638 136.314 83.0111C133.789 82.162 131.189 81.6109 128.565 81.3686L125.059 81.0694L130.993 73.5667C128.038 73.475 125.161 72.3499 122.842 70.3787C120.397 68.796 118.624 66.312 117.909 63.469L111.879 70.9075Z" fill="var(--fill-0, white)"/>
<path id="Path 10495" d="M136.936 52.1709C137.912 52.8865 138.743 53.7932 139.377 54.8352C140.012 55.8773 140.436 57.0325 140.625 58.2298C140.813 59.427 140.762 60.6409 140.473 61.7968C140.185 62.9526 139.666 64.0258 138.948 64.9502C137.397 66.8147 135.186 67.9738 132.764 68.1918C130.341 68.4097 127.891 67.6701 125.91 66.1234C124.934 65.4083 124.104 64.5023 123.47 63.4611C122.836 62.4199 122.411 61.2655 122.222 60.0691C122.033 58.8727 122.083 57.6594 122.371 56.5041C122.658 55.3487 123.176 54.2757 123.892 53.351C125.442 51.4838 127.654 50.3222 130.078 50.103C132.502 49.8837 134.954 50.6233 136.936 52.1709Z" fill="var(--fill-0, white)"/>
<path id="Path 10496" d="M129.107 117.65L115.734 133.653C114.096 132.76 112.625 131.564 111.4 130.128C110.483 129.245 109.744 128.187 109.228 127.018C108.713 125.85 108.432 124.595 108.402 123.332C108.379 121.722 108.872 120.171 109.806 118.916C112.389 115.186 118.673 116.277 118.673 116.277L129.107 117.65Z" fill="var(--fill-0, #1272B4)"/>
<path id="Path 10497" d="M94.6164 92.1829C94.1271 88.1959 93.0821 84.2775 91.5136 80.5484C89.5308 75.789 88.2268 70.7875 87.6429 65.7026C87.6581 64.6767 87.9578 63.6886 88.507 62.8531C89.0562 62.0175 89.8324 61.3687 90.7455 60.9821C91.6586 60.5955 92.6711 60.4869 93.6655 60.6689C94.6599 60.8509 95.5954 61.3161 96.3633 62.0103C98.9507 64.0105 101.079 66.5739 102.585 69.5025C103.321 71.5376 105.76 78.5209 105.153 79.5808C104.547 80.6407 94.6164 92.1829 94.6164 92.1829Z" fill="var(--fill-0, #1272B4)"/>
<path id="Path 10498" d="M107.249 103.038C111.225 102.603 115.269 102.796 119.241 103.609C124.47 104.665 129.782 105.027 135.044 104.687C136.606 104.318 137.963 103.381 138.869 102.047C140.274 99.7488 138.626 96.8813 137.195 95.5116C134.718 93.3665 131.815 91.815 128.711 90.9781C125.184 90.2878 121.603 90.0796 118.062 90.3591C117.55 90.955 107.249 103.038 107.249 103.038Z" fill="var(--fill-0, #1272B4)"/>
</g>
<defs>
<filter id="filter0_d_0_12" x="1.66893e-06" y="9.53674e-07" width="210.805" height="203.858" filterUnits="userSpaceOnUse" color-interpolation-filters="sRGB">
<feFlood flood-opacity="0" result="BackgroundImageFix"/>
<feColorMatrix in="SourceAlpha" type="matrix" values="0 0 0 0 0 0 0 0 0 0 0 0 0 0 0 0 0 0 127 0" result="hardAlpha"/>
<feOffset dx="4.30097" dy="4.30097"/>
<feGaussianBlur stdDeviation="25.8058"/>
<feComposite in2="hardAlpha" operator="out"/>
<feColorMatrix type="matrix" values="0 0 0 0 0 0 0 0 0 0 0 0 0 0 0 0 0 0 0.05 0"/>
<feBlend mode="normal" in2="BackgroundImageFix" result="effect1_dropShadow_0_12"/>
<feBlend mode="normal" in="SourceGraphic" in2="effect1_dropShadow_0_12" result="shape"/>
</filter>
</defs>
</svg>
