<svg preserveAspectRatio="none" width="100%" height="100%" overflow="visible" style="display: block;" viewBox="0 0 37.4707 35.3196" fill="none" xmlns="http://www.w3.org/2000/svg">
<path id="Exclude" d="M21.9092 12.3616L23.0312 11.5862C23.8752 11.0114 24.7842 10.539 25.7402 10.179C26.8258 9.81505 27.9498 9.57147 29.0928 9.45244C30.3696 9.37443 31.6559 9.53302 32.8887 9.92022C34.0984 10.2422 35.1904 10.9327 36.0156 11.8978C36.8631 12.886 37.3749 14.1218 37.4707 15.4144L37.3672 33.473C36.7657 33.8021 36.1257 34.0567 35.4609 34.2298C33.4985 34.8877 31.4155 35.1363 29.3359 34.9612C28.4964 34.9475 27.6596 34.818 26.8486 34.5765C25.7421 34.3255 24.6955 33.8361 23.7812 33.1419C23.0443 32.6088 22.3776 31.9808 21.7979 31.2747L21.7754 35.0423L15.4902 35.1224L15.5117 31.3548L13.9619 32.9564C13.2619 33.5263 12.4853 33.9934 11.6543 34.345C10.6656 34.7246 9.63693 34.9947 8.58594 35.1497C7.86518 35.2558 7.13697 35.3126 6.40625 35.3196C5.86193 35.3152 6.08139 35.3264 4.94824 35.2649C3.44848 35.021 1.96399 34.6738 0.505859 34.2249L0.533203 29.9505L1.08105 30.2269C1.71818 30.5668 2.3901 30.8322 3.08301 31.0179C4.2014 31.423 5.38523 31.5871 6.55762 31.4993C7.37263 31.4893 8.1546 31.2023 8.77734 30.6839C9.1935 30.3348 9.49956 29.8687 9.65918 29.3421C9.79641 28.9498 9.82632 28.5244 9.74609 28.1106C9.66584 27.6968 9.47765 27.3098 9.20215 26.9896C8.24701 25.5955 7.19046 25.4124 4.9873 23.5921C2.78411 21.7717 2.39564 21.7847 1.14941 19.9612C0.40541 18.8819 0.00385208 17.6027 0 16.3011C0.0429016 15.2214 0.323798 14.1715 0.821289 13.2278C1.33201 12.2583 2.11877 11.4719 3.08203 10.969C4.34533 10.2011 5.7999 9.80256 7.28906 9.81573C8.74062 9.68681 10.2105 9.84049 11.6191 10.2698C13.0038 10.8609 14.3305 11.5903 15.5791 12.4456L15.6484 8.61846C16.5277 9.33221 17.6406 9.67103 18.7441 9.56084C19.901 9.60348 21.0276 9.24249 21.9355 8.53838L21.9092 12.3616ZM28.1943 25.0911C28.1943 25.0911 26.0493 26.3097 26.1465 28.1233C26.1596 28.7496 26.3748 29.3598 26.7588 29.8597C27.0636 30.2492 27.4423 30.5738 27.8711 30.8128C28.2999 31.0518 28.7703 31.201 29.2529 31.2503C29.9577 31.3968 30.6801 31.4069 31.3818 31.2806L31.6533 22.928L28.1943 25.0911ZM28.9316 13.9593C27.6856 13.9011 26.4503 14.1356 25.3223 14.6439C24.1014 15.3034 22.9765 16.1276 21.9785 17.095C21.9643 17.4103 21.7016 23.7042 21.6992 23.762C22.7918 22.6379 24.0516 21.6936 25.4346 20.9622C27.2521 19.9947 28.9321 18.7886 30.4326 17.3743C30.8153 16.8705 31.0041 16.2396 30.9639 15.596C30.8479 14.5253 29.6821 14.0339 28.9316 13.9593ZM8.87305 13.6351C8.48035 13.6079 8.09092 13.6935 7.75 13.8831C7.40885 14.0729 7.12998 14.3592 6.94629 14.7073C6.7627 15.0553 6.68135 15.4514 6.71191 15.8499C6.74253 16.2485 6.88368 16.6335 7.11914 16.9593C8.48422 18.4102 10.046 19.6561 11.7549 20.6575C13.0984 21.4384 14.3293 22.4085 15.4092 23.5384C15.4112 23.4947 15.6897 17.4477 15.624 16.9661C15.5571 16.4824 13.1912 14.8965 12.4941 14.4407C11.357 13.8955 10.1178 13.6203 8.87305 13.6351ZM18.7793 0.0022492C19.2398 -0.0147157 19.7017 0.0644374 20.1357 0.234671C20.5695 0.404873 20.9667 0.66226 21.3027 0.991507C21.6388 1.32089 21.9067 1.71527 22.0898 2.14971C22.273 2.58429 22.3672 3.05056 22.3672 3.51885C22.336 4.48882 21.9421 5.4011 21.2646 6.06963C20.5872 6.73816 19.6773 7.11274 18.7207 7.11748C18.2605 7.13443 17.799 7.05505 17.3652 6.88506C16.9317 6.71505 16.5342 6.45816 16.1982 6.1292C15.8621 5.80013 15.5945 5.40612 15.4111 4.97198C15.2278 4.53793 15.1333 4.07266 15.1328 3.60479C15.163 2.63409 15.5568 1.7204 16.2344 1.05108C16.9119 0.381851 17.8221 0.00699617 18.7793 0.0022492Z" fill="var(--fill-0, #F8F8F8)"/>
</svg>
