<svg preserveAspectRatio="none" width="100%" height="100%" overflow="visible" style="display: block;" viewBox="0 0 37.4707 35.3196" fill="none" xmlns="http://www.w3.org/2000/svg">
<path id="Exclude" d="M21.9092 12.3626L23.0312 11.5862C23.8751 11.0115 24.7842 10.539 25.7402 10.179C26.8258 9.81507 27.9499 9.57147 29.0928 9.45244C30.3696 9.37443 31.6559 9.53302 32.8887 9.92022C34.0986 10.2422 35.1903 10.9334 36.0156 11.8987C36.8632 12.887 37.375 14.1228 37.4707 15.4153L37.3672 33.4739C36.7658 33.803 36.1257 34.0567 35.4609 34.2298C33.4985 34.8877 31.4155 35.1363 29.3359 34.9612C28.4964 34.9475 27.6596 34.818 26.8486 34.5765C25.7421 34.3255 24.6955 33.8361 23.7812 33.1419C23.0443 32.6088 22.3775 31.9807 21.7979 31.2747L21.7754 35.0423L15.4902 35.1224L15.5117 31.3548L13.9619 32.9564C13.2619 33.5264 12.4854 33.9943 11.6543 34.346C10.6657 34.7255 9.63686 34.9947 8.58594 35.1497C7.86517 35.2558 7.13698 35.3126 6.40625 35.3196C5.86193 35.3152 6.08139 35.3274 4.94824 35.2659C3.44844 35.0219 1.96403 34.6738 0.505859 34.2249L0.533203 29.9515L1.08105 30.2269C1.71817 30.5668 2.39012 30.8322 3.08301 31.0179C4.20142 31.423 5.38522 31.5871 6.55762 31.4993C7.37263 31.4893 8.1546 31.2023 8.77734 30.6839C9.19336 30.3348 9.49955 29.8695 9.65918 29.3431C9.79652 28.9506 9.82635 28.5246 9.74609 28.1106C9.66581 27.6968 9.47762 27.3097 9.20215 26.9896C8.24701 25.5955 7.19045 25.4124 4.9873 23.5921C2.78418 21.7718 2.39562 21.7856 1.14941 19.9622C0.405249 18.8828 0.00389799 17.6038 0 16.3021C0.0428417 15.2222 0.323707 14.1716 0.821289 13.2278C1.33201 12.2584 2.11882 11.4718 3.08203 10.969C4.3453 10.2012 5.79995 9.80256 7.28906 9.81573C8.74061 9.68681 10.2105 9.84147 11.6191 10.2708C13.0037 10.8618 14.3305 11.5904 15.5791 12.4456L15.6484 8.61846C16.5277 9.33229 17.6406 9.67104 18.7441 9.56084C19.901 9.60348 21.0276 9.24249 21.9355 8.53838L21.9092 12.3626ZM28.1943 25.0911C28.1943 25.0911 26.049 26.3105 26.1465 28.1243C26.1597 28.7507 26.3746 29.3608 26.7588 29.8606C27.0636 30.2503 27.4423 30.5748 27.8711 30.8138C28.2999 31.0527 28.7703 31.201 29.2529 31.2503C29.9578 31.3968 30.6801 31.407 31.3818 31.2806L31.6533 22.929L28.1943 25.0911ZM28.9316 13.9593C27.6856 13.9011 26.4503 14.1356 25.3223 14.6439C24.1014 15.3034 22.9765 16.1276 21.9785 17.095C21.9643 17.4093 21.6992 23.763 21.6992 23.763C22.7919 22.6387 24.0515 21.6947 25.4346 20.9632C27.2521 19.9957 28.9321 18.7895 30.4326 17.3753C30.8154 16.8714 31.0041 16.2398 30.9639 15.596C30.8479 14.5253 29.6821 14.0339 28.9316 13.9593ZM8.87305 13.6351C8.48025 13.6079 8.09099 13.6944 7.75 13.8841C7.40886 14.0739 7.12998 14.3592 6.94629 14.7073C6.76259 15.0554 6.68129 15.4522 6.71191 15.8509C6.7426 16.2493 6.88381 16.6336 7.11914 16.9593C8.48421 18.4102 10.046 19.6561 11.7549 20.6575C13.0984 21.4384 14.3293 22.4095 15.4092 23.5394C15.4092 23.5394 15.6897 17.4529 15.624 16.9671C15.5582 16.4838 13.1913 14.8976 12.4941 14.4417C11.3569 13.8964 10.1179 13.6203 8.87305 13.6351ZM18.7793 0.00224881C19.2398 -0.0147144 19.7017 0.0644383 20.1357 0.234671C20.5696 0.404907 20.9667 0.663113 21.3027 0.992483C21.6389 1.32193 21.9067 1.71616 22.0898 2.15069C22.2729 2.58515 22.3672 3.05069 22.3672 3.51885C22.3361 4.48884 21.9421 5.40107 21.2646 6.06963C20.5872 6.7382 19.6773 7.11274 18.7207 7.11748C18.2605 7.13443 17.799 7.05603 17.3652 6.88604C16.9316 6.71603 16.5343 6.45822 16.1982 6.1292C15.8622 5.80015 15.5944 5.40607 15.4111 4.97198C15.2279 4.53791 15.1333 4.07268 15.1328 3.60479C15.163 2.63418 15.5569 1.72136 16.2344 1.05205C16.912 0.382731 17.8221 0.00699614 18.7793 0.00224881Z" fill="var(--fill-0, #F8F8F8)"/>
</svg>
