<svg preserveAspectRatio="none" width="100%" height="100%" overflow="visible" style="display: block;" viewBox="0 0 210.805 203.858" fill="none" xmlns="http://www.w3.org/2000/svg">
<g id="Group 1000003488" opacity="0.05" filter="url(#filter0_d_0_12)">
<path id="Path 10494" d="M111.879 70.9074C110.62 67.1827 109.006 63.5809 107.06 60.1558C104.816 57.0105 102.024 54.3086 98.8323 52.195C95.7822 49.7398 92.1707 48.1544 88.385 47.6091C85.6258 47.03 82.7945 47.2975 80.2506 48.3775C77.7732 49.4283 75.5798 51.0434 73.8307 53.1045C71.8366 55.6797 70.6982 58.8587 70.5725 62.2029C70.3376 67.8341 71.1586 68.4403 72.9014 75.6264C74.6442 82.8126 76.5417 84.8972 76.367 89.2063C76.4426 90.2877 76.2339 91.3581 75.7628 92.3059C75.2917 93.2536 74.5755 94.0438 73.6889 94.5942C72.5499 95.373 71.2034 95.7922 69.8085 95.8023C67.7274 95.8095 65.6752 95.1017 63.9794 93.792C61.427 92.0526 59.2384 89.7978 57.5554 87.1737C56.4124 85.6769 55.436 84.0576 54.6451 82.3475L53.9384 80.9079L47.3106 89.2988C49.6267 92.5634 52.1522 95.6707 54.8692 98.5989C57.1109 100.569 56.6756 100.186 57.791 101.083C59.3086 102.261 60.8974 103.337 62.5468 104.304C64.952 105.712 67.4874 106.858 70.1094 107.722C72.3638 108.384 74.6837 108.728 77.0039 108.745L82.662 108.114L76.8225 115.512L89.9042 125.608L95.7438 118.209C95.8532 120.549 96.263 122.875 96.9627 125.13C97.78 127.991 99.1843 130.663 101.08 132.964C102.38 134.764 103.907 136.384 105.617 137.781C109.635 141.519 114.311 144.425 119.369 146.327C121.005 147.07 122.715 147.613 124.461 147.945L152.446 112.477C154.237 109.771 155.083 106.499 154.856 103.166C154.639 99.9147 153.45 96.7699 151.45 94.1608C149.504 91.3856 147.096 88.975 144.343 87.0461C141.804 85.4165 139.112 84.0638 136.314 83.0111C133.789 82.162 131.189 81.6109 128.565 81.3686L125.059 81.0694L130.993 73.5667C128.038 73.475 125.161 72.3499 122.842 70.3787C120.397 68.796 118.624 66.312 117.909 63.469L111.879 70.9074Z" fill="var(--fill-0, white)"/>
<path id="Path 10495" d="M136.936 52.1711C137.912 52.8866 138.743 53.7934 139.378 54.8354C140.012 55.8774 140.436 57.0326 140.625 58.2299C140.813 59.4272 140.762 60.6411 140.474 61.7969C140.185 62.9527 139.666 64.0259 138.949 64.9504C137.398 66.8148 135.186 67.974 132.764 68.1919C130.342 68.4099 127.891 67.6702 125.91 66.1236C124.935 65.4085 124.104 64.5024 123.47 63.4612C122.836 62.42 122.411 61.2657 122.222 60.0693C122.033 58.8728 122.084 57.6596 122.371 56.5042C122.658 55.3489 123.176 54.2758 123.892 53.3511C125.442 51.484 127.655 50.3224 130.078 50.1031C132.502 49.8839 134.954 50.6234 136.936 52.1711Z" fill="var(--fill-0, white)"/>
<path id="Path 10496" d="M129.107 117.65L115.734 133.653C114.096 132.76 112.626 131.563 111.4 130.127C110.483 129.245 109.744 128.187 109.228 127.018C108.713 125.849 108.432 124.595 108.403 123.332C108.379 121.722 108.872 120.17 109.807 118.916C112.389 115.186 118.673 116.277 118.673 116.277L129.107 117.65Z" fill="var(--fill-0, #1272B4)"/>
<path id="Path 10497" d="M94.6166 92.183C94.1273 88.196 93.0823 84.2776 91.5137 80.5486C89.531 75.7891 88.227 70.7876 87.643 65.7027C87.6583 64.6768 87.958 63.6887 88.5071 62.8532C89.0563 62.0176 89.8326 61.3689 90.7457 60.9822C91.6588 60.5956 92.6713 60.487 93.6657 60.669C94.6601 60.851 95.5956 61.3162 96.3635 62.0105C98.9509 64.0106 101.08 66.574 102.585 69.5027C103.321 71.5377 105.76 78.521 105.154 79.5809C104.547 80.6408 94.6166 92.183 94.6166 92.183Z" fill="var(--fill-0, #1272B4)"/>
<path id="Path 10498" d="M107.249 103.037C111.226 102.603 115.27 102.796 119.241 103.609C124.47 104.665 129.782 105.027 135.045 104.687C136.607 104.318 137.964 103.381 138.869 102.047C140.274 99.7486 138.627 96.8811 137.196 95.5115C134.719 93.3663 131.815 91.8149 128.712 90.9779C125.184 90.2877 121.603 90.0795 118.062 90.3589C117.551 90.9548 107.249 103.037 107.249 103.037Z" fill="var(--fill-0, #1272B4)"/>
</g>
<defs>
<filter id="filter0_d_0_12" x="1.66893e-06" y="0" width="210.805" height="203.858" filterUnits="userSpaceOnUse" color-interpolation-filters="sRGB">
<feFlood flood-opacity="0" result="BackgroundImageFix"/>
<feColorMatrix in="SourceAlpha" type="matrix" values="0 0 0 0 0 0 0 0 0 0 0 0 0 0 0 0 0 0 127 0" result="hardAlpha"/>
<feOffset dx="4.30097" dy="4.30097"/>
<feGaussianBlur stdDeviation="25.8058"/>
<feComposite in2="hardAlpha" operator="out"/>
<feColorMatrix type="matrix" values="0 0 0 0 0 0 0 0 0 0 0 0 0 0 0 0 0 0 0.05 0"/>
<feBlend mode="normal" in2="BackgroundImageFix" result="effect1_dropShadow_0_12"/>
<feBlend mode="normal" in="SourceGraphic" in2="effect1_dropShadow_0_12" result="shape"/>
</filter>
</defs>
</svg>
